<svg xmlns="http://www.w3.org/2000/svg" xml:space="preserve" fill-rule="evenodd" stroke-linejoin="round" stroke-miterlimit="2" clip-rule="evenodd" viewBox="0 0 200 150">
  <path fill-rule="nonzero" d="M37.677 57.398c0 8.258 4.433 12.778 11.908 12.778 21.644 0 38.072 16.428 38.072 38.854 0 24.686-19.47 40.332-41.81 40.332-30.596 0-44.069-26.164-44.069-55.283 0-35.116 20.948-72.492 53.023-93.44l9.735 10.43c-14.95 12.777-26.859 34.421-26.859 46.33M165.278.638l9.735 10.43c-14.95 12.69-26.858 34.334-26.858 46.33 0 8.257 4.52 12.69 11.995 12.69 21.643 0 38.072 16.428 38.072 38.854 0 24.686-19.47 40.332-41.81 40.332-30.596 0-44.07-26.164-44.07-55.283-.086-35.03 20.775-72.405 52.936-93.354"/>
</svg>
